# Blender 4.4.0
# www.blender.org
mtllib invader.mtl
o poly-1-0
v -0.420000 0.060000 -0.060000
v -0.420000 0.060000 -0.060000
v -0.300000 0.060000 -0.060000
v -0.300000 0.060000 -0.060000
v -0.300000 0.060000 -0.060000
v -0.300000 0.060000 0.060000
v -0.300000 0.060000 0.060000
v -0.300000 0.060000 0.060000
v -0.420000 0.060000 0.060000
v -0.420000 0.060000 0.060000
v -0.420000 -0.060000 -0.060000
v -0.420000 -0.060000 -0.060000
v -0.300000 -0.060000 -0.060000
v -0.300000 -0.060000 -0.060000
v -0.300000 -0.060000 -0.060000
v -0.300000 -0.060000 0.060000
v -0.300000 -0.060000 0.060000
v -0.300000 -0.060000 0.060000
v -0.420000 -0.060000 0.060000
v -0.420000 -0.060000 0.060000
v -0.540000 0.060000 -0.060000
v -0.540000 0.060000 -0.060000
v -0.540000 0.060000 -0.060000
v -0.540000 0.060000 0.060000
v -0.540000 0.060000 0.060000
v -0.540000 0.060000 0.060000
v -0.540000 -0.060000 -0.060000
v -0.540000 -0.060000 -0.060000
v -0.540000 -0.060000 -0.060000
v -0.540000 -0.060000 0.060000
v -0.540000 -0.060000 0.060000
v -0.540000 -0.060000 0.060000
vn -0.0000 1.0000 -0.0000
vn -0.0000 -1.0000 -0.0000
vn -0.0000 -0.0000 1.0000
vn -0.0000 -0.0000 -1.0000
vn 1.0000 -0.0000 -0.0000
vn -1.0000 -0.0000 -0.0000
s 0
usemtl poly-1-0.003
f 9//1 6//1 3//1
f 9//1 3//1 1//1
f 11//2 13//2 16//2
f 11//2 16//2 19//2
f 20//3 17//3 7//3
f 20//3 7//3 10//3
f 14//4 12//4 2//4
f 14//4 2//4 4//4
f 18//5 15//5 5//5
f 18//5 5//5 8//5
f 24//1 9//1 1//1
f 24//1 1//1 21//1
f 27//2 11//2 19//2
f 27//2 19//2 30//2
f 31//3 20//3 10//3
f 31//3 10//3 25//3
f 12//4 28//4 22//4
f 12//4 22//4 2//4
f 29//6 32//6 26//6
f 29//6 26//6 23//6
o poly-3-0
v -0.180000 0.060000 -0.060000
v -0.180000 0.060000 -0.060000
v -0.180000 0.060000 -0.060000
v -0.060000 0.060000 -0.060000
v -0.060000 0.060000 -0.060000
v -0.060000 0.060000 0.060000
v -0.060000 0.060000 0.060000
v -0.180000 0.060000 0.060000
v -0.180000 0.060000 0.060000
v -0.180000 0.060000 0.060000
v -0.180000 -0.060000 -0.060000
v -0.180000 -0.060000 -0.060000
v -0.180000 -0.060000 -0.060000
v -0.060000 -0.060000 -0.060000
v -0.060000 -0.060000 -0.060000
v -0.060000 -0.060000 0.060000
v -0.060000 -0.060000 0.060000
v -0.180000 -0.060000 0.060000
v -0.180000 -0.060000 0.060000
v -0.180000 -0.060000 0.060000
v 0.060000 0.060000 -0.060000
v 0.060000 0.060000 -0.060000
v 0.060000 0.060000 -0.060000
v 0.060000 0.060000 0.060000
v 0.060000 0.060000 0.060000
v 0.060000 0.060000 0.060000
v 0.060000 -0.060000 -0.060000
v 0.060000 -0.060000 -0.060000
v 0.060000 -0.060000 -0.060000
v 0.060000 -0.060000 0.060000
v 0.060000 -0.060000 0.060000
v 0.060000 -0.060000 0.060000
vn -0.0000 1.0000 -0.0000
vn -0.0000 -1.0000 -0.0000
vn -0.0000 -0.0000 1.0000
vn -0.0000 -0.0000 -1.0000
vn -1.0000 -0.0000 -0.0000
vn 1.0000 -0.0000 -0.0000
s 0
usemtl poly-3-0.003
f 40//7 38//7 36//7
f 40//7 36//7 33//7
f 43//8 46//8 48//8
f 43//8 48//8 50//8
f 51//9 49//9 39//9
f 51//9 39//9 41//9
f 47//10 44//10 34//10
f 47//10 34//10 37//10
f 45//11 52//11 42//11
f 45//11 42//11 35//11
f 38//7 56//7 53//7
f 38//7 53//7 36//7
f 46//8 59//8 62//8
f 46//8 62//8 48//8
f 49//9 63//9 57//9
f 49//9 57//9 39//9
f 60//10 47//10 37//10
f 60//10 37//10 54//10
f 64//12 61//12 55//12
f 64//12 55//12 58//12
o poly-4-0
v 0.060000 0.180000 -0.060000
v 0.060000 0.180000 -0.060000
v 0.060000 0.180000 -0.060000
v 0.180000 0.180000 -0.060000
v 0.180000 0.180000 -0.060000
v 0.180000 0.180000 0.060000
v 0.180000 0.180000 0.060000
v 0.060000 0.180000 0.060000
v 0.060000 0.180000 0.060000
v 0.060000 0.180000 0.060000
v 0.060000 0.060000 -0.060000
v 0.060000 0.060000 -0.060000
v 0.060000 0.060000 -0.060000
v 0.180000 0.060000 -0.060000
v 0.180000 0.060000 -0.060000
v 0.180000 0.060000 -0.060000
v 0.180000 0.060000 0.060000
v 0.180000 0.060000 0.060000
v 0.180000 0.060000 0.060000
v 0.060000 0.060000 0.060000
v 0.060000 0.060000 0.060000
v 0.060000 0.060000 0.060000
v 0.060000 0.300000 -0.060000
v 0.180000 0.300000 -0.060000
v 0.180000 0.300000 -0.060000
v 0.180000 0.300000 0.060000
v 0.180000 0.300000 0.060000
v 0.060000 0.300000 0.060000
v -0.060000 0.300000 -0.060000
v -0.060000 0.300000 0.060000
v -0.060000 0.180000 -0.060000
v -0.060000 0.180000 -0.060000
v -0.060000 0.180000 0.060000
v -0.060000 0.180000 0.060000
v -0.180000 0.300000 -0.060000
v -0.180000 0.300000 0.060000
v -0.180000 0.180000 -0.060000
v -0.180000 0.180000 -0.060000
v -0.180000 0.180000 0.060000
v -0.180000 0.180000 0.060000
v -0.300000 0.300000 -0.060000
v -0.300000 0.300000 0.060000
v -0.300000 0.180000 -0.060000
v -0.300000 0.180000 -0.060000
v -0.300000 0.180000 0.060000
v -0.300000 0.180000 0.060000
v -0.420000 0.300000 -0.060000
v -0.420000 0.300000 0.060000
v -0.420000 0.180000 -0.060000
v -0.420000 0.180000 -0.060000
v -0.420000 0.180000 0.060000
v -0.420000 0.180000 0.060000
v -0.540000 0.300000 -0.060000
v -0.540000 0.300000 0.060000
v -0.540000 0.180000 -0.060000
v -0.540000 0.180000 -0.060000
v -0.540000 0.180000 -0.060000
v -0.540000 0.180000 0.060000
v -0.540000 0.180000 0.060000
v -0.540000 0.180000 0.060000
v -0.660000 0.180000 -0.060000
v -0.660000 0.180000 -0.060000
v -0.660000 0.180000 0.060000
v -0.660000 0.180000 0.060000
v -0.660000 0.060000 -0.060000
v -0.660000 0.060000 -0.060000
v -0.660000 0.060000 -0.060000
v -0.540000 0.060000 -0.060000
v -0.540000 0.060000 -0.060000
v -0.540000 0.060000 -0.060000
v -0.540000 0.060000 0.060000
v -0.540000 0.060000 0.060000
v -0.540000 0.060000 0.060000
v -0.660000 0.060000 0.060000
v -0.660000 0.060000 0.060000
v -0.660000 0.060000 0.060000
v -0.660000 0.300000 -0.060000
v -0.660000 0.300000 -0.060000
v -0.660000 0.300000 -0.060000
v -0.660000 0.300000 0.060000
v -0.660000 0.300000 0.060000
v -0.660000 0.300000 0.060000
v -0.660000 0.420000 -0.060000
v -0.540000 0.420000 -0.060000
v -0.540000 0.420000 -0.060000
v -0.540000 0.420000 -0.060000
v -0.540000 0.420000 0.060000
v -0.540000 0.420000 0.060000
v -0.540000 0.420000 0.060000
v -0.660000 0.420000 0.060000
v -0.420000 0.420000 -0.060000
v -0.420000 0.420000 -0.060000
v -0.420000 0.420000 -0.060000
v -0.420000 0.420000 0.060000
v -0.420000 0.420000 0.060000
v -0.420000 0.420000 0.060000
v -0.300000 0.420000 -0.060000
v -0.300000 0.420000 0.060000
v -0.180000 0.420000 -0.060000
v -0.180000 0.420000 0.060000
v -0.060000 0.420000 -0.060000
v -0.060000 0.420000 -0.060000
v -0.060000 0.420000 -0.060000
v -0.060000 0.420000 0.060000
v -0.060000 0.420000 0.060000
v -0.060000 0.420000 0.060000
v 0.060000 0.420000 -0.060000
v 0.060000 0.420000 -0.060000
v 0.060000 0.420000 -0.060000
v 0.060000 0.420000 0.060000
v 0.060000 0.420000 0.060000
v 0.060000 0.420000 0.060000
v 0.180000 0.420000 -0.060000
v 0.180000 0.420000 -0.060000
v 0.180000 0.420000 0.060000
v 0.180000 0.420000 0.060000
v -0.780000 0.420000 -0.060000
v -0.780000 0.420000 -0.060000
v -0.780000 0.420000 -0.060000
v -0.780000 0.420000 0.060000
v -0.780000 0.420000 0.060000
v -0.780000 0.420000 0.060000
v -0.780000 0.300000 -0.060000
v -0.780000 0.300000 -0.060000
v -0.780000 0.300000 -0.060000
v -0.780000 0.300000 0.060000
v -0.780000 0.300000 0.060000
v -0.780000 0.300000 0.060000
v -0.900000 0.420000 -0.060000
v -0.900000 0.420000 -0.060000
v -0.900000 0.420000 -0.060000
v -0.900000 0.420000 0.060000
v -0.900000 0.420000 0.060000
v -0.900000 0.420000 0.060000
v -0.900000 0.300000 -0.060000
v -0.900000 0.300000 -0.060000
v -0.900000 0.300000 0.060000
v -0.900000 0.300000 0.060000
v -0.900000 0.180000 -0.060000
v -0.900000 0.180000 -0.060000
v -0.780000 0.180000 -0.060000
v -0.780000 0.180000 -0.060000
v -0.780000 0.180000 0.060000
v -0.780000 0.180000 0.060000
v -0.900000 0.180000 0.060000
v -0.900000 0.180000 0.060000
v -0.900000 0.060000 -0.060000
v -0.900000 0.060000 -0.060000
v -0.900000 0.060000 -0.060000
v -0.780000 0.060000 -0.060000
v -0.780000 0.060000 -0.060000
v -0.780000 0.060000 -0.060000
v -0.780000 0.060000 0.060000
v -0.780000 0.060000 0.060000
v -0.780000 0.060000 0.060000
v -0.900000 0.060000 0.060000
v -0.900000 0.060000 0.060000
v -0.900000 0.060000 0.060000
v -0.780000 0.540000 -0.060000
v -0.780000 0.540000 -0.060000
v -0.780000 0.540000 -0.060000
v -0.660000 0.540000 -0.060000
v -0.660000 0.540000 -0.060000
v -0.660000 0.540000 -0.060000
v -0.660000 0.540000 0.060000
v -0.660000 0.540000 0.060000
v -0.660000 0.540000 0.060000
v -0.780000 0.540000 0.060000
v -0.780000 0.540000 0.060000
v -0.780000 0.540000 0.060000
v -0.540000 0.540000 -0.060000
v -0.540000 0.540000 -0.060000
v -0.540000 0.540000 -0.060000
v -0.540000 0.540000 0.060000
v -0.540000 0.540000 0.060000
v -0.540000 0.540000 0.060000
v 0.060000 0.540000 -0.060000
v 0.060000 0.540000 -0.060000
v 0.060000 0.540000 -0.060000
v 0.180000 0.540000 -0.060000
v 0.180000 0.540000 -0.060000
v 0.180000 0.540000 0.060000
v 0.180000 0.540000 0.060000
v 0.060000 0.540000 0.060000
v 0.060000 0.540000 0.060000
v 0.060000 0.540000 0.060000
v 0.060000 0.660000 -0.060000
v 0.060000 0.660000 -0.060000
v 0.060000 0.660000 -0.060000
v 0.180000 0.660000 -0.060000
v 0.180000 0.660000 -0.060000
v 0.180000 0.660000 -0.060000
v 0.180000 0.660000 0.060000
v 0.180000 0.660000 0.060000
v 0.180000 0.660000 0.060000
v 0.060000 0.660000 0.060000
v 0.060000 0.660000 0.060000
v 0.060000 0.660000 0.060000
v -0.660000 0.660000 -0.060000
v -0.660000 0.660000 -0.060000
v -0.660000 0.660000 -0.060000
v -0.540000 0.660000 -0.060000
v -0.540000 0.660000 -0.060000
v -0.540000 0.660000 -0.060000
v -0.540000 0.660000 0.060000
v -0.540000 0.660000 0.060000
v -0.540000 0.660000 0.060000
v -0.660000 0.660000 0.060000
v -0.660000 0.660000 0.060000
v -0.660000 0.660000 0.060000
v -0.420000 0.540000 -0.060000
v -0.420000 0.540000 -0.060000
v -0.420000 0.540000 -0.060000
v -0.300000 0.540000 -0.060000
v -0.300000 0.540000 0.060000
v -0.420000 0.540000 0.060000
v -0.420000 0.540000 0.060000
v -0.420000 0.540000 0.060000
v -0.180000 0.540000 -0.060000
v -0.180000 0.540000 0.060000
v -0.060000 0.540000 -0.060000
v -0.060000 0.540000 -0.060000
v -0.060000 0.540000 -0.060000
v -0.060000 0.540000 0.060000
v -0.060000 0.540000 0.060000
v -0.060000 0.540000 0.060000
v -0.420000 0.660000 -0.060000
v -0.420000 0.660000 -0.060000
v -0.420000 0.660000 -0.060000
v -0.420000 0.660000 0.060000
v -0.420000 0.660000 0.060000
v -0.420000 0.660000 0.060000
v -0.300000 0.660000 -0.060000
v -0.300000 0.660000 -0.060000
v -0.300000 0.660000 0.060000
v -0.300000 0.660000 0.060000
v -0.180000 0.660000 -0.060000
v -0.180000 0.660000 -0.060000
v -0.180000 0.660000 0.060000
v -0.180000 0.660000 0.060000
v -0.060000 0.660000 -0.060000
v -0.060000 0.660000 -0.060000
v -0.060000 0.660000 -0.060000
v -0.060000 0.660000 0.060000
v -0.060000 0.660000 0.060000
v -0.060000 0.660000 0.060000
v -0.540000 0.780000 -0.060000
v -0.540000 0.780000 -0.060000
v -0.540000 0.780000 -0.060000
v -0.420000 0.780000 -0.060000
v -0.420000 0.780000 -0.060000
v -0.420000 0.780000 -0.060000
v -0.420000 0.780000 0.060000
v -0.420000 0.780000 0.060000
v -0.420000 0.780000 0.060000
v -0.540000 0.780000 0.060000
v -0.540000 0.780000 0.060000
v -0.540000 0.780000 0.060000
v -0.060000 0.780000 -0.060000
v -0.060000 0.780000 -0.060000
v -0.060000 0.780000 -0.060000
v 0.060000 0.780000 -0.060000
v 0.060000 0.780000 -0.060000
v 0.060000 0.780000 -0.060000
v 0.060000 0.780000 0.060000
v 0.060000 0.780000 0.060000
v 0.060000 0.780000 0.060000
v -0.060000 0.780000 0.060000
v -0.060000 0.780000 0.060000
v -0.060000 0.780000 0.060000
vn -0.0000 -1.0000 -0.0000
vn -0.0000 -0.0000 1.0000
vn -0.0000 -0.0000 -1.0000
vn 1.0000 -0.0000 -0.0000
vn -1.0000 -0.0000 -0.0000
vn -0.0000 1.0000 -0.0000
s 0
usemtl poly-4-0.003
f 75//13 78//13 81//13
f 75//13 81//13 84//13
f 85//14 82//14 70//14
f 85//14 70//14 72//14
f 79//15 76//15 65//15
f 79//15 65//15 68//15
f 83//16 80//16 69//16
f 83//16 69//16 71//16
f 77//17 86//17 73//17
f 77//17 73//17 66//17
f 72//14 70//14 90//14
f 72//14 90//14 92//14
f 68//15 65//15 87//15
f 68//15 87//15 88//15
f 71//16 69//16 89//16
f 71//16 89//16 91//16
f 95//13 67//13 74//13
f 95//13 74//13 97//13
f 98//14 72//14 92//14
f 98//14 92//14 94//14
f 65//15 96//15 93//15
f 65//15 93//15 87//15
f 101//13 95//13 97//13
f 101//13 97//13 103//13
f 104//14 98//14 94//14
f 104//14 94//14 100//14
f 96//15 102//15 99//15
f 96//15 99//15 93//15
f 107//13 101//13 103//13
f 107//13 103//13 109//13
f 110//14 104//14 100//14
f 110//14 100//14 106//14
f 102//15 108//15 105//15
f 102//15 105//15 99//15
f 113//13 107//13 109//13
f 113//13 109//13 115//13
f 116//14 110//14 106//14
f 116//14 106//14 112//14
f 108//15 114//15 111//15
f 108//15 111//15 105//15
f 119//13 113//13 115//13
f 119//13 115//13 122//13
f 123//14 116//14 112//14
f 123//14 112//14 118//14
f 114//15 120//15 117//15
f 114//15 117//15 111//15
f 129//13 132//13 135//13
f 129//13 135//13 138//13
f 139//14 136//14 123//14
f 139//14 123//14 127//14
f 133//15 130//15 125//15
f 133//15 125//15 120//15
f 137//16 134//16 121//16
f 137//16 121//16 124//16
f 131//17 140//17 128//17
f 131//17 128//17 126//17
f 127//14 123//14 118//14
f 127//14 118//14 144//14
f 120//15 125//15 141//15
f 120//15 141//15 117//15
f 126//17 128//17 145//17
f 126//17 145//17 142//17
f 144//14 118//14 151//14
f 144//14 151//14 154//14
f 117//15 141//15 147//15
f 117//15 147//15 148//15
f 152//18 158//18 155//18
f 152//18 155//18 149//18
f 118//14 112//14 159//14
f 118//14 159//14 151//14
f 111//15 117//15 148//15
f 111//15 148//15 156//15
f 112//14 106//14 162//14
f 112//14 162//14 159//14
f 105//15 111//15 156//15
f 105//15 156//15 161//15
f 106//14 100//14 164//14
f 106//14 164//14 162//14
f 99//15 105//15 161//15
f 99//15 161//15 163//15
f 100//14 94//14 168//14
f 100//14 168//14 164//14
f 93//15 99//15 163//15
f 93//15 163//15 165//15
f 169//18 174//18 171//18
f 169//18 171//18 166//18
f 94//14 92//14 175//14
f 94//14 175//14 168//14
f 87//15 93//15 165//15
f 87//15 165//15 172//15
f 92//14 90//14 179//14
f 92//14 179//14 175//14
f 88//15 87//15 172//15
f 88//15 172//15 177//15
f 91//16 89//16 178//16
f 91//16 178//16 180//16
f 187//13 143//13 146//13
f 187//13 146//13 190//13
f 191//14 144//14 154//14
f 191//14 154//14 184//14
f 141//15 188//15 181//15
f 141//15 181//15 147//15
f 196//18 185//18 182//18
f 196//18 182//18 193//18
f 201//14 191//14 184//14
f 201//14 184//14 197//14
f 188//15 199//15 194//15
f 188//15 194//15 181//15
f 200//17 202//17 198//17
f 200//17 198//17 195//17
f 209//14 207//14 191//14
f 209//14 191//14 201//14
f 205//15 203//15 199//15
f 205//15 199//15 188//15
f 208//16 206//16 189//16
f 208//16 189//16 192//16
f 204//17 210//17 202//17
f 204//17 202//17 200//17
f 211//13 214//13 217//13
f 211//13 217//13 220//13
f 221//14 218//14 207//14
f 221//14 207//14 209//14
f 215//15 212//15 203//15
f 215//15 203//15 205//15
f 219//16 216//16 206//16
f 219//16 206//16 208//16
f 213//17 222//17 210//17
f 213//17 210//17 204//17
f 232//18 229//18 226//18
f 232//18 226//18 223//18
f 184//14 154//14 230//14
f 184//14 230//14 233//14
f 147//15 181//15 224//15
f 147//15 224//15 227//15
f 183//17 186//17 234//17
f 183//17 234//17 225//17
f 154//14 151//14 238//14
f 154//14 238//14 230//14
f 148//15 147//15 227//15
f 148//15 227//15 235//15
f 153//16 150//16 236//16
f 153//16 236//16 239//16
f 175//14 179//14 246//14
f 175//14 246//14 248//14
f 177//15 172//15 241//15
f 177//15 241//15 244//15
f 180//16 178//16 245//16
f 180//16 245//16 247//16
f 173//17 176//17 249//17
f 173//17 249//17 242//17
f 260//18 257//18 254//18
f 260//18 254//18 251//18
f 248//14 246//14 258//14
f 248//14 258//14 261//14
f 244//15 241//15 252//15
f 244//15 252//15 255//15
f 247//16 245//16 256//16
f 247//16 256//16 259//16
f 272//18 269//18 266//18
f 272//18 266//18 263//18
f 230//14 238//14 270//14
f 230//14 270//14 273//14
f 235//15 227//15 264//15
f 235//15 264//15 267//15
f 228//17 231//17 274//17
f 228//17 274//17 265//17
f 159//14 162//14 279//14
f 159//14 279//14 280//14
f 161//15 156//15 275//15
f 161//15 275//15 278//15
f 157//17 160//17 281//17
f 157//17 281//17 276//17
f 162//14 164//14 284//14
f 162//14 284//14 279//14
f 163//15 161//15 278//15
f 163//15 278//15 283//15
f 164//14 168//14 288//14
f 164//14 288//14 284//14
f 165//15 163//15 283//15
f 165//15 283//15 285//15
f 170//16 167//16 286//16
f 170//16 286//16 289//16
f 237//13 277//13 282//13
f 237//13 282//13 240//13
f 238//14 280//14 294//14
f 238//14 294//14 270//14
f 275//15 235//15 267//15
f 275//15 267//15 291//15
f 295//18 299//18 297//18
f 295//18 297//18 292//18
f 280//14 279//14 300//14
f 280//14 300//14 294//14
f 278//15 275//15 291//15
f 278//15 291//15 298//15
f 299//18 303//18 301//18
f 299//18 301//18 297//18
f 279//14 284//14 304//14
f 279//14 304//14 300//14
f 283//15 278//15 298//15
f 283//15 298//15 302//15
f 303//18 308//18 305//18
f 303//18 305//18 301//18
f 284//14 288//14 309//14
f 284//14 309//14 304//14
f 285//15 283//15 302//15
f 285//15 302//15 306//15
f 287//13 243//13 250//13
f 287//13 250//13 290//13
f 288//14 248//14 261//14
f 288//14 261//14 309//14
f 241//15 285//15 306//15
f 241//15 306//15 252//15
f 320//18 317//18 314//18
f 320//18 314//18 311//18
f 270//14 294//14 318//14
f 270//14 318//14 321//14
f 291//15 267//15 312//15
f 291//15 312//15 315//15
f 296//16 293//16 316//16
f 296//16 316//16 319//16
f 268//17 271//17 322//17
f 268//17 322//17 313//17
f 332//18 329//18 326//18
f 332//18 326//18 323//18
f 309//14 261//14 330//14
f 309//14 330//14 333//14
f 252//15 306//15 324//15
f 252//15 324//15 327//15
f 262//16 253//16 328//16
f 262//16 328//16 331//16
f 307//17 310//17 334//17
f 307//17 334//17 325//17
o poly-5-0
v 0.300000 0.180000 -0.060000
v 0.300000 0.180000 -0.060000
v 0.420000 0.180000 -0.060000
v 0.420000 0.180000 -0.060000
v 0.420000 0.180000 0.060000
v 0.420000 0.180000 0.060000
v 0.300000 0.180000 0.060000
v 0.300000 0.180000 0.060000
v 0.300000 0.060000 -0.060000
v 0.300000 0.060000 -0.060000
v 0.300000 0.060000 -0.060000
v 0.420000 0.060000 -0.060000
v 0.420000 0.060000 -0.060000
v 0.420000 0.060000 -0.060000
v 0.420000 0.060000 0.060000
v 0.420000 0.060000 0.060000
v 0.420000 0.060000 0.060000
v 0.300000 0.060000 0.060000
v 0.300000 0.060000 0.060000
v 0.300000 0.060000 0.060000
v 0.300000 0.300000 -0.060000
v 0.300000 0.300000 -0.060000
v 0.300000 0.300000 -0.060000
v 0.420000 0.300000 -0.060000
v 0.420000 0.300000 -0.060000
v 0.420000 0.300000 0.060000
v 0.420000 0.300000 0.060000
v 0.300000 0.300000 0.060000
v 0.300000 0.300000 0.060000
v 0.300000 0.300000 0.060000
v 0.300000 0.420000 -0.060000
v 0.300000 0.420000 -0.060000
v 0.300000 0.420000 -0.060000
v 0.420000 0.420000 -0.060000
v 0.420000 0.420000 -0.060000
v 0.420000 0.420000 -0.060000
v 0.420000 0.420000 0.060000
v 0.420000 0.420000 0.060000
v 0.420000 0.420000 0.060000
v 0.300000 0.420000 0.060000
v 0.300000 0.420000 0.060000
v 0.300000 0.420000 0.060000
v 0.180000 0.420000 -0.060000
v 0.180000 0.420000 -0.060000
v 0.180000 0.420000 0.060000
v 0.180000 0.420000 0.060000
v 0.180000 0.300000 -0.060000
v 0.180000 0.300000 -0.060000
v 0.180000 0.300000 -0.060000
v 0.180000 0.300000 0.060000
v 0.180000 0.300000 0.060000
v 0.180000 0.300000 0.060000
v 0.180000 0.540000 -0.060000
v 0.180000 0.540000 -0.060000
v 0.180000 0.540000 -0.060000
v 0.300000 0.540000 -0.060000
v 0.300000 0.540000 -0.060000
v 0.300000 0.540000 -0.060000
v 0.300000 0.540000 0.060000
v 0.300000 0.540000 0.060000
v 0.300000 0.540000 0.060000
v 0.180000 0.540000 0.060000
v 0.180000 0.540000 0.060000
v 0.180000 0.540000 0.060000
vn -0.0000 -1.0000 -0.0000
vn -0.0000 -0.0000 1.0000
vn -0.0000 -0.0000 -1.0000
vn 1.0000 -0.0000 -0.0000
vn -1.0000 -0.0000 -0.0000
vn -0.0000 1.0000 -0.0000
s 0
usemtl poly-5-0.003
f 343//19 346//19 349//19
f 343//19 349//19 352//19
f 353//20 350//20 339//20
f 353//20 339//20 341//20
f 347//21 344//21 335//21
f 347//21 335//21 337//21
f 351//22 348//22 338//22
f 351//22 338//22 340//22
f 345//23 354//23 342//23
f 345//23 342//23 336//23
f 341//20 339//20 360//20
f 341//20 360//20 362//20
f 337//21 335//21 355//21
f 337//21 355//21 358//21
f 340//22 338//22 359//22
f 340//22 359//22 361//22
f 336//23 342//23 363//23
f 336//23 363//23 356//23
f 374//24 371//24 368//24
f 374//24 368//24 365//24
f 362//20 360//20 372//20
f 362//20 372//20 375//20
f 358//21 355//21 366//21
f 358//21 366//21 369//21
f 361//22 359//22 370//22
f 361//22 370//22 373//22
f 381//19 357//19 364//19
f 381//19 364//19 384//19
f 385//20 362//20 375//20
f 385//20 375//20 379//20
f 355//21 382//21 377//21
f 355//21 377//21 366//21
f 383//23 386//23 380//23
f 383//23 380//23 378//23
f 396//24 393//24 390//24
f 396//24 390//24 387//24
f 379//20 375//20 394//20
f 379//20 394//20 397//20
f 366//21 377//21 388//21
f 366//21 388//21 391//21
f 376//22 367//22 392//22
f 376//22 392//22 395//22
f 378//23 380//23 398//23
f 378//23 398//23 389//23
o poly-6-0
v 0.060000 0.900000 -0.060000
v 0.060000 0.900000 -0.060000
v 0.060000 0.900000 -0.060000
v 0.180000 0.900000 -0.060000
v 0.180000 0.900000 -0.060000
v 0.180000 0.900000 -0.060000
v 0.180000 0.900000 0.060000
v 0.180000 0.900000 0.060000
v 0.180000 0.900000 0.060000
v 0.060000 0.900000 0.060000
v 0.060000 0.900000 0.060000
v 0.060000 0.900000 0.060000
v 0.060000 0.780000 -0.060000
v 0.060000 0.780000 -0.060000
v 0.060000 0.780000 -0.060000
v 0.180000 0.780000 -0.060000
v 0.180000 0.780000 -0.060000
v 0.180000 0.780000 -0.060000
v 0.180000 0.780000 0.060000
v 0.180000 0.780000 0.060000
v 0.180000 0.780000 0.060000
v 0.060000 0.780000 0.060000
v 0.060000 0.780000 0.060000
v 0.060000 0.780000 0.060000
vn -0.0000 1.0000 -0.0000
vn -0.0000 -1.0000 -0.0000
vn -0.0000 -0.0000 1.0000
vn -0.0000 -0.0000 -1.0000
vn 1.0000 -0.0000 -0.0000
vn -1.0000 -0.0000 -0.0000
s 0
usemtl poly-6-0.003
f 408//25 405//25 402//25
f 408//25 402//25 399//25
f 411//26 414//26 417//26
f 411//26 417//26 420//26
f 421//27 418//27 406//27
f 421//27 406//27 409//27
f 415//28 412//28 400//28
f 415//28 400//28 403//28
f 419//29 416//29 404//29
f 419//29 404//29 407//29
f 413//30 422//30 410//30
f 413//30 410//30 401//30
o poly-7-0
v -0.660000 0.900000 -0.060000
v -0.660000 0.900000 -0.060000
v -0.660000 0.900000 -0.060000
v -0.540000 0.900000 -0.060000
v -0.540000 0.900000 -0.060000
v -0.540000 0.900000 -0.060000
v -0.540000 0.900000 0.060000
v -0.540000 0.900000 0.060000
v -0.540000 0.900000 0.060000
v -0.660000 0.900000 0.060000
v -0.660000 0.900000 0.060000
v -0.660000 0.900000 0.060000
v -0.660000 0.780000 -0.060000
v -0.660000 0.780000 -0.060000
v -0.660000 0.780000 -0.060000
v -0.540000 0.780000 -0.060000
v -0.540000 0.780000 -0.060000
v -0.540000 0.780000 -0.060000
v -0.540000 0.780000 0.060000
v -0.540000 0.780000 0.060000
v -0.540000 0.780000 0.060000
v -0.660000 0.780000 0.060000
v -0.660000 0.780000 0.060000
v -0.660000 0.780000 0.060000
vn -0.0000 1.0000 -0.0000
vn -0.0000 -1.0000 -0.0000
vn -0.0000 -0.0000 1.0000
vn -0.0000 -0.0000 -1.0000
vn 1.0000 -0.0000 -0.0000
vn -1.0000 -0.0000 -0.0000
s 0
usemtl poly-7-0.003
f 432//31 429//31 426//31
f 432//31 426//31 423//31
f 435//32 438//32 441//32
f 435//32 441//32 444//32
f 445//33 442//33 430//33
f 445//33 430//33 433//33
f 439//34 436//34 424//34
f 439//34 424//34 427//34
f 443//35 440//35 428//35
f 443//35 428//35 431//35
f 437//36 446//36 434//36
f 437//36 434//36 425//36
